<svg xmlns="http://www.w3.org/2000/svg" width="38.01" height="29.548" viewBox="0 0 38.01 29.548">
  <path id="cc-amex-brands" d="M21.255,40.957c0-1.082-.93-1.214-1.807-1.214l-2.579-.02v4.571h1.082V42.639h1.187c1.214,0,.956.679.976,1.655h1.095V43.4c0-.607-.1-1-.726-1.214A1.3,1.3,0,0,0,21.255,40.957Zm-1.939.745H17.951V40.693h1.385c.336,0,.706.066.706.488S19.692,41.7,19.316,41.7Zm-1.1,5.9H14.739l-1.385,1.5L12,47.6H7.616l-.007,4.571h4.313l1.4-1.517,1.345,1.517H16.8l.007-1.537c1.247,0,3.252.3,3.252-1.537C20.055,47.961,19.244,47.6,18.215,47.6Zm-6.846,3.608H8.691V50.3h2.394v-.93H8.691v-.824h2.75l1.181,1.332Zm4.34.541L14.04,49.9l1.669-1.807ZM18.2,49.709H16.8V48.548h1.418c.369,0,.673.152.673.554C18.894,49.524,18.591,49.709,18.2,49.709Zm-2.084-9.016V39.73h-3.66V44.3h3.66v-.943H13.552v-.91h2.493v-.93H13.552v-.824ZM37.8,46.734h0Zm-12.835,2.1c0-1.082-.93-1.233-1.787-1.233h-2.6l-.007,4.571h1.095l.007-1.669h1.161c.726,0,.976.132.976.91l-.007.758H24.9l.007-.91c0-.587-.119-1-.726-1.214A1.305,1.305,0,0,0,24.968,48.838Zm-1.926.739H21.677V48.548h1.385c.336,0,.706.066.706.488C23.768,49.491,23.412,49.577,23.043,49.577ZM11.646,44.3V39.73H9.825l-1.3,3.1-1.431-3.1H5.307v4.333L3.454,39.73H1.838L-.121,44.3H1.06l.422-1.009H3.757L4.179,44.3H6.409V40.726L7.992,44.3h.963l1.583-3.575V44.3ZM1.871,42.342l.739-1.82.758,1.82Zm31.487,10.48v-.3c-.712.369-.257.3-10.335.3,0-1.662.007-1.576,0-1.662-.112-.007-.211-.007-.62-.007,0,1.181-.007.448-.007,1.669H19.784c0-.8.007-1.009.007-1.926a4.273,4.273,0,0,1-2.262.409c0,.97-.007.547-.007,1.517H14.3c-.336-.376-.178-.2-1.016-1.148-.211.231-.844.917-1.062,1.148H6.811V46.734h5.481c.33.369.185.2,1.022,1.134.211-.231.8-.884,1.035-1.134h3.825a3.149,3.149,0,0,1,1.6.369v-.369c3.581,0,4.241-.092,4.993.336v-.336h5.158v.343c.752-.455,1.293-.343,4.28-.343v.33c.679-.389,1.095-.343,3.581-.33V35.166A3.167,3.167,0,0,0,34.624,32H2.966A3.167,3.167,0,0,0-.2,35.166v7.242c.62-1.444,1.3-3.034,1.524-3.555H3.942c.284.666.106.244.594,1.392V38.853H7.57c.191.409.732,1.583.917,1.979.383-.9.666-1.576.831-1.979h6.793c0-.007.758,0,.765,0,2.882.013,3.535-.053,4.247.35v-.35h2.632v.613a3.154,3.154,0,0,1,2.025-.613H27.6c0,.033.125.02.152.02h2.137c.277.646.171.4.58,1.359V38.873h2.856c.323.528-.066-.119.739,1.214V38.873H36.7V44.94H33.951c-.356-.594-.092-.145-.871-1.444V44.94H29.6c-.422-.976-.007-.02-.435-1.009H27.91c-.277.66-.145.343-.422,1.009H25.72a3.067,3.067,0,0,1-1.959-.587v.587H19.375c-.02-.917-.007-1.636-.007-1.636a4.707,4.707,0,0,0-.646-.013v1.655H9.786V44.2c-.165.369-.178.389-.336.752H7.5c-.264-.587-.191-.422-.336-.752v.752H3.678c-.277-.666-.145-.35-.422-1.009H1.99c-.277.66-.145.343-.422,1.009H-.187V58.382a3.167,3.167,0,0,0,3.166,3.166H34.644a3.167,3.167,0,0,0,3.166-3.166V52.42C36.972,52.967,35.653,52.822,33.358,52.822Zm2.394-4.254h1.985V47.6h-2.17A1.384,1.384,0,0,0,34,48.97c0,2.177,2.816.844,2.816,1.807,0,.336-.284.422-.554.422H34.149l-.007.976h2.111a1.728,1.728,0,0,0,1.484-.587v-1.7c-.693-.91-2.592-.086-2.592-.89C35.145,48.614,35.449,48.568,35.752,48.568Zm-3.759,2.625H29.869l-.007.976h2.124c.976,0,1.728-.369,1.728-1.451,0-2.19-2.829-.739-2.829-1.735,0-.369.323-.422.607-.422H33.5V47.6h-2.19a1.368,1.368,0,0,0-1.55,1.365c0,2.177,2.816.824,2.816,1.807C32.566,51.127,32.263,51.193,31.993,51.193Zm-2.783-2.645V47.6H25.569l-.007,4.571H29.2l.007-.943-2.546-.02V50.3h2.5v-.93H26.67v-.824ZM25.5,41.418c-.02.013-.092.145-.092.5,0,.4.059.508.073.521a.519.519,0,0,0,.224.033l.481-1.115c-.073,0-.139-.007-.2-.007C25.608,41.352,25.516,41.4,25.5,41.418Zm1.345-.693h0Zm-1.068-1c-1.55,0-2.242.791-2.242,2.328,0,1.464.673,2.242,2.177,2.242h1.266l.422-1.009h2.262l.435,1.009h2.223V40.871l2.058,3.423H35.93V39.743H34.816v3.172L32.9,39.743H31.228v4.313l-1.84-4.313H27.752L26.2,43.338h-.488c-.877,0-1.062-.534-1.062-1.313,0-1.57,1.035-1.319,2.183-1.3v-1Zm2.777.8.739,1.82h-1.5Zm-6.668-.791V44.3H23V39.73Z" transform="translate(0.2 -32)" fill="#013250"/>
</svg>
