<svg xmlns="http://www.w3.org/2000/svg" width="21.106" height="33.769" viewBox="0 0 21.106 33.769">
  <path id="bitcoin-sign-solid" d="M3.166,2.111a2.111,2.111,0,1,1,4.221,0V4.221H9.5V2.111a2.111,2.111,0,1,1,4.221,0V4.221a2.239,2.239,0,0,1-.02.3A7.391,7.391,0,0,1,17.63,15.889a7.391,7.391,0,0,1-3.911,13.659v2.111a2.111,2.111,0,1,1-4.221,0V29.548H7.387v2.111a2.111,2.111,0,1,1-4.221,0V29.548H2.753A2.753,2.753,0,0,1,0,26.8V6.7a2.478,2.478,0,0,1,2.478-2.48h.688Zm8.442,12.663a3.166,3.166,0,0,0,0-6.332H4.221v6.332ZM4.221,19v6.332h9.5a3.166,3.166,0,0,0,0-6.332Z" fill="#013250"/>
</svg>
