<svg xmlns="http://www.w3.org/2000/svg" width="37.99" height="29.548" viewBox="0 0 37.99 29.548">
  <path id="cc-discover-brands" d="M34.323,42.823c0-.521-.363-.8-1.029-.8h-.323v1.642h.31C33.96,43.667,34.323,43.377,34.323,42.823ZM34.824,32H3.166A3.167,3.167,0,0,0,0,35.166V58.382a3.167,3.167,0,0,0,3.166,3.166H34.824a3.167,3.167,0,0,0,3.166-3.166V35.166A3.167,3.167,0,0,0,34.824,32Zm-2.909,9.161c1.491,0,3.489-.27,3.489,1.609a1.434,1.434,0,0,1-1.233,1.53l1.7,2.269H34.58l-1.464-2.163h-.145v2.163H31.916Zm-3.687.007h2.988v.923H29.284v1.2h1.867v.91H29.284v1.464h1.932v.91H28.229Zm-4.531,0,1.444,3.641,1.464-3.641H27.76l-2.341,5.553h-.567l-2.308-5.553Zm-3.687-.2a2.942,2.942,0,1,1-2.942,2.942A2.94,2.94,0,0,1,20.011,40.97Zm-3.252.4v1.253a1.8,1.8,0,1,0,0,2.519V46.4a2.844,2.844,0,1,1,0-5.026Zm-6.411,4.373c.752,0,1.477-1.009-.218-1.609-.989-.363-1.332-.752-1.332-1.5,0-1.53,2.018-2.071,3.278-.943l-.554.712c-.686-.765-1.642-.409-1.642.165,0,.29.178.455.811.679,1.2.435,1.557.824,1.557,1.688,0,1.946-2.559,2.467-3.733.745l.679-.653a1.249,1.249,0,0,0,1.154.712Zm-6.694.831H2.111V41.168H3.654a2.711,2.711,0,1,1,0,5.408Zm4.452,0H7.051V41.168H8.106ZM35.879,58.448a1,1,0,0,1-.989.989H8.442c12.505-2.348,25.241-9.181,27.437-10.553ZM4.887,42.526a1.92,1.92,0,0,0-1.444-.435H3.166v3.575h.277a2.034,2.034,0,0,0,1.444-.422,1.849,1.849,0,0,0,.587-1.365A1.8,1.8,0,0,0,4.887,42.526Z" transform="translate(0 -32)" fill="#013250"/>
</svg>
