<svg xmlns="http://www.w3.org/2000/svg" width="37.99" height="29.548" viewBox="0 0 37.99 29.548">
  <path id="cc-mastercard-brands" d="M31.85,57.885a.739.739,0,1,1-.739-.772A.737.737,0,0,1,31.85,57.885Zm-20.5-.772a.774.774,0,1,0,.719.772A.729.729,0,0,0,11.351,57.113Zm7.75-.02a.611.611,0,0,0-.627.574h1.26A.606.606,0,0,0,19.1,57.093Zm7.11.02a.772.772,0,1,0,.739.772A.729.729,0,0,0,26.21,57.113ZM33.2,58.835c0,.02.02.033.02.073,0,.02-.02.033-.02.073a.231.231,0,0,0-.033.053.085.085,0,0,1-.073.033c-.02.02-.033.02-.073.02a.131.131,0,0,1-.073-.02c-.02,0-.033-.02-.053-.033s-.033-.033-.033-.053a.12.12,0,0,1-.02-.073c0-.033,0-.053.02-.073a.124.124,0,0,1,.033-.073.231.231,0,0,1,.053-.033.12.12,0,0,1,.073-.02c.033,0,.053,0,.073.02s.053.02.073.033S33.175,58.8,33.2,58.835Zm-.145.092c.033,0,.033-.02.053-.02a.08.08,0,0,0,0-.106c-.02,0-.033-.02-.073-.02h-.106v.231h.053V58.92H33l.073.092h.053l-.073-.086Zm4.94-22.761V59.382a3.167,3.167,0,0,1-3.166,3.166H3.166A3.167,3.167,0,0,1,0,59.382V36.166A3.167,3.167,0,0,1,3.166,33H34.824A3.167,3.167,0,0,1,37.99,36.166ZM4.221,45.373A9.131,9.131,0,0,0,18.4,52.984a9.836,9.836,0,0,1,0-15.2,9.131,9.131,0,0,0-14.18,7.591ZM19,52.549A9.132,9.132,0,0,0,19,38.2,9.132,9.132,0,0,0,19,52.549ZM9.61,57.581a.924.924,0,0,0-.97-.97.943.943,0,0,0-.844.429.875.875,0,0,0-.8-.429.837.837,0,0,0-.7.356v-.29H5.751V59.1h.541c0-1.247-.165-1.992.594-1.992.673,0,.541.673.541,1.992h.521c0-1.207-.165-1.992.594-1.992.673,0,.541.66.541,1.992h.541V57.581Zm2.961-.9H12.05v.29a.951.951,0,0,0-.772-.356,1.275,1.275,0,0,0,0,2.546.915.915,0,0,0,.772-.356v.3h.521Zm2.671,1.688c0-.989-1.51-.541-1.51-1,0-.376.785-.317,1.22-.073l.218-.429c-.62-.4-1.992-.4-1.992.541s1.51.547,1.51.989c0,.416-.89.383-1.365.053l-.231.416C13.831,59.362,15.242,59.257,15.242,58.366Zm2.335.613-.145-.448c-.251.139-.8.29-.8-.27V57.166h.864v-.488h-.864v-.739h-.541v.739h-.5v.481h.5v1.1c0,1.161,1.141.95,1.491.719Zm.877-.884h1.814c0-1.068-.488-1.491-1.148-1.491a1.188,1.188,0,0,0-1.2,1.273,1.316,1.316,0,0,0,2.229.937l-.251-.4C19.384,58.841,18.606,58.8,18.454,58.1Zm3.9-1.418a.774.774,0,0,0-1,.29v-.29h-.541V59.1h.541V57.733a.55.55,0,0,1,.844-.554l.158-.5Zm.7,1.207c0-.752.765-1,1.365-.554l.251-.429a1.305,1.305,0,1,0,0,1.979l-.251-.429C23.81,58.881,23.051,58.624,23.051,57.885Zm4.4-1.207H26.91v.29a1.2,1.2,0,1,0,0,1.834v.3h.541Zm2.223,0a.793.793,0,0,0-1,.29v-.29H28.15V59.1h.521V57.733a.553.553,0,0,1,.844-.554l.158-.5Zm2.658-.983H31.81v1.273a1.2,1.2,0,1,0,0,1.834v.3h.521V55.7Zm.5-4.953v.3h.053v-.3h.125v-.053h-.3v.053h.125Zm.435,8.165a.2.2,0,0,0-.02-.106c-.02-.02-.033-.053-.053-.073s-.053-.033-.073-.053c-.033,0-.073-.02-.106-.02a.7.7,0,0,1-.092.02.344.344,0,0,0-.073.053.1.1,0,0,0-.053.073.2.2,0,0,0-.02.106A.192.192,0,0,0,32.8,59a.1.1,0,0,0,.053.073.229.229,0,0,0,.073.053.179.179,0,0,0,.092.02.2.2,0,0,0,.106-.02c.02-.02.053-.033.073-.053s.033-.053.053-.073A.192.192,0,0,0,33.268,58.907Zm.211-8.225h-.092l-.106.231-.106-.231h-.092v.356h.053v-.27l.106.231h.073l.092-.231v.27h.073Zm.29-5.309a9.13,9.13,0,0,0-14.18-7.6,9.836,9.836,0,0,1,0,15.2,9.13,9.13,0,0,0,14.18-7.6Z" transform="translate(0 -33)" fill="#013250"/>
</svg>
