<svg xmlns="http://www.w3.org/2000/svg" width="25.321" height="29.911" viewBox="0 0 25.321 29.911">
  <path id="paypal-brands" d="M7.424,46.883c-.231,1.266-1.148,7.169-1.418,8.838-.02.119-.066.165-.2.165H.888a.8.8,0,0,1-.8-.917L3.955,30.441a1.339,1.339,0,0,1,1.319-1.115c10.045,0,10.889-.244,13.455.752,3.964,1.537,4.327,5.243,2.9,9.253-1.418,4.129-4.782,5.9-9.24,5.956-2.862.046-4.584-.462-4.966,1.6ZM23.63,37.392c-.119-.086-.165-.119-.2.086a15.437,15.437,0,0,1-.58,2.216C20.22,47.2,12.925,46.547,9.364,46.547a.664.664,0,0,0-.719.62C7.154,56.427,6.857,58.36,6.857,58.36a.7.7,0,0,0,.7.851h4.188a1.183,1.183,0,0,0,1.148-.983c.046-.356-.073.4.95-6.022.3-1.451.943-1.3,1.932-1.3,4.683,0,8.337-1.9,9.425-7.407.429-2.3.3-4.709-1.57-6.107Z" transform="translate(-0.083 -29.3)" fill="#013250"/>
</svg>
