<svg xmlns="http://www.w3.org/2000/svg" width="37.99" height="29.548" viewBox="0 0 37.99 29.548">
  <path id="cc-visa-brands" d="M31.005,45.145s.5,2.454.613,2.968h-2.2c.218-.587,1.055-2.869,1.055-2.869-.013.02.218-.6.35-.983l.185.884Zm6.985-9.979V58.382a3.167,3.167,0,0,1-3.166,3.166H3.166A3.167,3.167,0,0,1,0,58.382V35.166A3.167,3.167,0,0,1,3.166,32H34.824A3.167,3.167,0,0,1,37.99,35.166ZM10.058,51.734,14.226,41.5h-2.8L8.831,48.489l-.284-1.418-.923-4.709a1.1,1.1,0,0,0-1.2-.864H2.157l-.046.2A10.466,10.466,0,0,1,4.894,42.83l2.361,8.9Zm6.226.013L17.946,41.5H15.295L13.639,51.747h2.645ZM25.511,48.4c.013-1.167-.7-2.058-2.223-2.79-.93-.468-1.5-.785-1.5-1.266.013-.435.481-.884,1.524-.884a4.545,4.545,0,0,1,1.972.389l.237.112.363-2.216a6.586,6.586,0,0,0-2.374-.435c-2.618,0-4.459,1.4-4.472,3.39-.02,1.471,1.319,2.289,2.322,2.783,1.022.5,1.372.831,1.372,1.273-.013.686-.831,1-1.59,1a5.283,5.283,0,0,1-2.486-.547l-.35-.165-.369,2.3a8.093,8.093,0,0,0,2.955.547c2.783.007,4.6-1.372,4.617-3.5Zm9.313,3.351L32.687,41.5H30.636a1.3,1.3,0,0,0-1.385.851l-3.938,9.4H28.1s.455-1.266.554-1.537h3.4c.079.363.317,1.537.317,1.537Z" transform="translate(0 -32)" fill="#013250"/>
</svg>
