<svg id="icons8-zelle" xmlns="http://www.w3.org/2000/svg" width="28.355" height="28.355" viewBox="0 0 28.355 28.355">
  <path id="Subtraction_31" data-name="Subtraction 31" d="M22.841,28.355H5.513A5.552,5.552,0,0,1,4.4,28.243a5.484,5.484,0,0,1-1.971-.83,5.529,5.529,0,0,1-2-2.426,5.485,5.485,0,0,1-.321-1.035A5.554,5.554,0,0,1,0,22.842V5.514A5.555,5.555,0,0,1,.112,4.4a5.484,5.484,0,0,1,.83-1.972,5.529,5.529,0,0,1,2.426-2A5.485,5.485,0,0,1,4.4.112,5.555,5.555,0,0,1,5.513,0H22.841a5.556,5.556,0,0,1,1.111.112,5.484,5.484,0,0,1,1.971.83,5.529,5.529,0,0,1,2,2.426A5.484,5.484,0,0,1,28.243,4.4a5.555,5.555,0,0,1,.112,1.111V22.842a5.554,5.554,0,0,1-.112,1.111,5.484,5.484,0,0,1-.83,1.971,5.529,5.529,0,0,1-2.426,2,5.487,5.487,0,0,1-1.035.321A5.553,5.553,0,0,1,22.841,28.355ZM9.058,6.3a.789.789,0,0,0-.788.788V9.058a.789.789,0,0,0,.788.788h6.487L8.093,19.138a.346.346,0,0,0-.032.046.79.79,0,0,0-.185.507V21.66a.789.789,0,0,0,.788.788H12.8V25.2a.394.394,0,0,0,.394.394H15.95a.394.394,0,0,0,.394-.394V22.448h3.741a.788.788,0,0,0,.787-.788V19.691a.788.788,0,0,0-.787-.788h-6.89l7.45-9.291a.783.783,0,0,0,.228-.554V7.089a.788.788,0,0,0-.787-.788H16.343V3.938a.394.394,0,0,0-.394-.394H13.193a.394.394,0,0,0-.394.394V6.3Z" transform="translate(0 0)" fill="#013250"/>
</svg>
