<svg id="pinterest-seeklogo.com" xmlns="http://www.w3.org/2000/svg" width="29.793" height="29.793" viewBox="0 0 29.793 29.793">
  <path id="Path_47840" data-name="Path 47840" d="M0,14.9A14.9,14.9,0,0,0,8.917,28.541a13.088,13.088,0,0,1,.259-3.421C9.462,23.911,11.093,17,11.093,17a5.723,5.723,0,0,1-.476-2.357c0-2.208,1.279-3.856,2.873-3.856a2,2,0,0,1,2.01,2.236c0,1.362-.869,3.4-1.316,5.287a2.306,2.306,0,0,0,2.351,2.869c2.822,0,4.723-3.625,4.723-7.92,0-3.265-2.2-5.709-6.2-5.709a7.054,7.054,0,0,0-7.334,7.134,4.3,4.3,0,0,0,.982,2.922.722.722,0,0,1,.214.83c-.071.274-.236.934-.3,1.2a.513.513,0,0,1-.746.373c-2.081-.85-3.051-3.129-3.051-5.691,0-4.232,3.569-9.306,10.646-9.306,5.687,0,9.431,4.116,9.431,8.533,0,5.844-3.249,10.209-8.038,10.209A4.272,4.272,0,0,1,13.222,21.9s-.865,3.432-1.048,4.095a12.474,12.474,0,0,1-1.5,3.191A14.9,14.9,0,1,0,0,14.9Z" fill="#013250"/>
</svg>
