<svg xmlns="http://www.w3.org/2000/svg" width="23.374" height="26.604" viewBox="0 0 23.374 26.604">
  <g id="tiktok-black-icon-seeklogo.com" transform="translate(-194.299 -38.4)">
    <path id="Path_47841" data-name="Path 47841" d="M217.661,45.06a6.718,6.718,0,0,1-6.728-6.66h-4.345V50.268l-.005,6.5a3.938,3.938,0,0,1-2.7,3.731,3.877,3.877,0,0,1-1.457.193,3.931,3.931,0,0,1,.219-7.857,4.06,4.06,0,0,1,1.238.2v-4.4a8.4,8.4,0,0,0-7.513,2.706,8.161,8.161,0,0,0,.369,11.255,8.942,8.942,0,0,0,.786.687,8.4,8.4,0,0,0,10.994-.687,8.129,8.129,0,0,0,2.44-5.786l-.021-9.709a10.765,10.765,0,0,0,2.44,1.42,10.946,10.946,0,0,0,4.293.864V45.055c.005.005-.01.005-.01.005Z" transform="translate(0 0)" fill="#fff"/>
  </g>
</svg>
