<svg xmlns="http://www.w3.org/2000/svg" width="29.084" height="20.22" viewBox="0 0 29.084 20.22">
  <g id="Group_5336" data-name="Group 5336" transform="translate(21768 -6429.048)">
    <path id="Path_47838" data-name="Path 47838" d="M2.135,10.9a5.81,5.81,0,0,1,5.18-5.4c2.916-.294,6.015-.452,9.227-.452a91.95,91.95,0,0,1,9.227.454,5.807,5.807,0,0,1,5.18,5.4c.089,1.39.135,2.811.135,4.254s-.047,2.863-.135,4.254a5.81,5.81,0,0,1-5.18,5.4c-2.916.294-6.015.452-9.227.452a91.949,91.949,0,0,1-9.227-.454,5.807,5.807,0,0,1-5.18-5.4C2.047,18.021,2,16.6,2,15.158s.047-2.863.135-4.254Z" transform="translate(-21770 6424)" fill="#013250" fill-rule="evenodd"/>
    <path id="Path_47839" data-name="Path 47839" d="M17.285,13.36l-7.139,4.355V9Z" transform="translate(-21766.299 6425.797)" fill="#fff" fill-rule="evenodd"/>
  </g>
</svg>
