<svg id="Group_5309" data-name="Group 5309" xmlns="http://www.w3.org/2000/svg" xmlns:xlink="http://www.w3.org/1999/xlink" width="324" height="53.506" viewBox="0 0 324 53.506">
  <defs>
    <clipPath id="clip-path">
      <rect id="Rectangle_22283" data-name="Rectangle 22283" width="324" height="53.506" fill="#fff"/>
    </clipPath>
  </defs>
  <g id="Group_5287" data-name="Group 5287" clip-path="url(#clip-path)">
    <path id="Path_47816" data-name="Path 47816" d="M729.926,48.877c-.665.553-1.117.963-1.6,1.328a15.445,15.445,0,0,1-21.7-3.344c-5.2-7.222-4.441-17.7,1.768-23.752a14.859,14.859,0,0,1,9.781-4.278A15.1,15.1,0,0,1,729.465,22.4a.381.381,0,0,0,.156.084,1.549,1.549,0,0,0,.306-.02v-.93c0-6.839.014-13.678-.019-20.516,0-.806.236-1.007,1.014-1q4.755.061,9.511,0c.752-.009.961.227.96.969q-.028,25.13,0,50.26c0,.756-.226.963-.965.955q-4.8-.053-9.6,0c-.692.007-.984-.158-.916-.9.066-.726.014-1.462.014-2.43m-7.308-5.307A7.261,7.261,0,0,0,730.163,36a7.482,7.482,0,1,0-14.962.012,7.165,7.165,0,0,0,7.417,7.561" transform="translate(-525.321 -0.018)" fill="#fff"/>
    <path id="Path_47817" data-name="Path 47817" d="M50.7,40.031,26.206,19.115,1.628,40.11a25.229,25.229,0,0,1-1.623-9.06A25.812,25.812,0,0,1,6.944,13.577a26.233,26.233,0,0,1,34.549-3.562C52.45,17.99,54.267,31.492,50.7,40.031" transform="translate(0 -3.82)" fill="#fff"/>
    <path id="Path_47818" data-name="Path 47818" d="M424.653,107.181c-3.652,0-7.237.011-10.822-.028-.207,0-.564-.389-.586-.621-.074-.785-.028-1.581-.028-2.6-.614.48-1.047.817-1.477,1.157a15.522,15.522,0,0,1-19.752-.968,17.516,17.516,0,0,1-5.353-14.865c.515-6.069,3.181-11,8.753-13.763a15.347,15.347,0,0,1,16.877,1.463c.251.185.511.359.952.667,0-.832.027-1.473-.008-2.11-.029-.522.114-.757.688-.754,3.557.018,7.115.009,10.757.009Zm-18.69-8.621a7.3,7.3,0,0,0,7.514-7.6,7.486,7.486,0,1,0-14.971-.026c0,4.518,3.039,7.626,7.457,7.627" transform="translate(-288.777 -55.005)" fill="#fff"/>
    <path id="Path_47819" data-name="Path 47819" d="M551.338,75.168a4.1,4.1,0,0,1,.541-.074c3.319,0,6.639.008,9.958-.013.6,0,.781.224.748.8-.041.709-.01,1.421-.01,2.358.561-.429.98-.728,1.373-1.055a13.276,13.276,0,0,1,12.367-2.6A15.517,15.517,0,0,1,581.6,76.89a10.383,10.383,0,0,1,4.6,8.84c.061,6.956.009,13.914.032,20.87,0,.688-.158.933-.893.924q-4.754-.058-9.509,0c-.761.009-.954-.244-.95-.977.027-5.792.02-11.585.014-17.377,0-3.141-1.949-5.707-4.657-6.176a6.706,6.706,0,0,0-7.662,6.391q-.024,8.509.015,17.019c.005.838-.187,1.139-1.083,1.124-3.139-.053-6.279-.035-9.419-.008-.62.005-.818-.167-.817-.8q.027-15.5.014-30.992c0-.173.031-.346.05-.557" transform="translate(-411.836 -55.332)" fill="#fff"/>
    <path id="Path_47820" data-name="Path 47820" d="M266.159,41.634h1.161c5.295,0,10.59.018,15.884-.019.836-.006,1.055.233,1.04,1.056-.051,2.867-.042,5.735,0,8.6.009.712-.2.919-.912.918q-14.09-.03-28.179,0c-.754,0-.948-.226-.947-.966q.03-25.089,0-50.178c0-.869.293-1.049,1.086-1.04,3.29.036,6.581.048,9.871-.007.871-.014,1.021.279,1.02,1.07q-.035,19.713-.016,39.426Z" transform="translate(-189.903 0)" fill="#fff"/>
    <path id="Path_47821" data-name="Path 47821" d="M1010.4,99.707a15.728,15.728,0,0,1-3.89,4.573,19.106,19.106,0,0,1-10.961,3.877,18.231,18.231,0,0,1-13.682-4.185c-4.635-3.966-6.847-9.035-6.066-15.108a16.3,16.3,0,0,1,10.394-13.54,18.662,18.662,0,0,1,18.068,1.455,14.07,14.07,0,0,1,6.242,9.652c.325,1.656.312,3.376.48,5.064.08.807-.193,1.071-1.043,1.067-7.12-.035-14.24-.02-21.359-.02H987.42a5.973,5.973,0,0,0,1.557,4.385,6.445,6.445,0,0,0,3.691,2.057c3.2.594,6.117.1,8.516-2.312,1.327-1.335.826-1.153,2.439-.375,1.933.933,3.846,1.909,5.766,2.869.313.157.618.33,1.008.538M999.81,86.2c-.1-3.137-2.774-5.15-6.615-5.043-2.963.083-5.472,2.385-5.422,5.043Z" transform="translate(-728.867 -55.025)" fill="#fff"/>
    <path id="Path_47822" data-name="Path 47822" d="M39.3,108.646l9.627,10.265c1.24-1.117,2.452-2.166,3.608-3.271.462-.442.743-.493,1.247-.031,3.163,2.909,6.36,5.781,9.621,8.734-.175.241-.329.481-.51.7a25.3,25.3,0,0,1-16.859,9.406,25.514,25.514,0,0,1-20.62-6.239c-1.142-1-2.118-2.179-3.18-3.267a.616.616,0,0,1,.034-1.045q8.384-7.553,16.754-15.122a1.626,1.626,0,0,1,.277-.131" transform="translate(-16.405 -81.165)" fill="#fff"/>
    <path id="Path_47823" data-name="Path 47823" d="M1154.237,97.77c1.235,2.507,2.4,4.886,3.583,7.254.258.515.053.806-.391.983a35.8,35.8,0,0,1-5.073,1.94,18.936,18.936,0,0,1-11.2-.471c-6.232-2.381-10.469-6.677-11.754-13.307-1.194-6.161,1-11.343,5.623-15.468a17.814,17.814,0,0,1,12.543-4.625,19.8,19.8,0,0,1,9.538,2.393c.749.421.992.794.517,1.663-1.182,2.164-2.238,4.4-3.362,6.639-4.327-2.038-8.405-2.375-11.617,1.8a7.9,7.9,0,0,0,.064,9.6,7.39,7.39,0,0,0,5.361,3.052,10.413,10.413,0,0,0,6.17-1.459" transform="translate(-843.492 -55.337)" fill="#fff"/>
    <path id="Path_47824" data-name="Path 47824" d="M879.366,75.23v4.227c4.936-5.8,10.572-6.81,17.156-3.35l-4.751,9.6A9.523,9.523,0,0,0,886.94,84a7.3,7.3,0,0,0-3.86.52,6.529,6.529,0,0,0-3.689,6.091c-.085,5.312-.042,10.627-.007,15.94.005.777-.175,1.025-.985,1.013-3.109-.047-6.219-.039-9.328,0-.741.008-.967-.209-.965-.962q.035-15.314.01-30.627c0-.5.016-.858.687-.853,3.378.025,6.757.013,10.135.019a2.508,2.508,0,0,1,.429.092" transform="translate(-648.53 -55.371)" fill="#fff"/>
    <path id="Path_47825" data-name="Path 47825" d="M1258.249,63.029a3.911,3.911,0,0,1-3.859,3.792,3.866,3.866,0,0,1-3.818-3.835,3.839,3.839,0,0,1,7.677.043m-3.907,3.156a3.11,3.11,0,0,0,3.23-3.1,3.171,3.171,0,1,0-6.342-.109,3.1,3.1,0,0,0,3.112,3.209" transform="translate(-934.256 -44.241)" fill="#fff"/>
    <path id="Path_47826" data-name="Path 47826" d="M1259.183,67.9c0-.06,0-.119,0-.179,0-2.094.073-2.159,2.144-1.9a1.265,1.265,0,0,1,1.129,1.723,9.713,9.713,0,0,0,.047,1.711c-.005.209-.183.414-.282.62a6.162,6.162,0,0,1-.607-.493c-.067-.068-.041-.228-.057-.346a.641.641,0,0,0-.9-.583c-.228.076-.349.461-.524.7s-.354.484-.532.725a2.548,2.548,0,0,1-.4-.736,7.548,7.548,0,0,1-.018-1.249m1.552-.015.768-.707c-.241-.174-.47-.459-.727-.487-.2-.022-.428.282-.644.441l.6.753" transform="translate(-940.676 -49.092)" fill="#fff"/>
  </g>
</svg>
