<svg id="Group_5288" data-name="Group 5288" xmlns="http://www.w3.org/2000/svg" xmlns:xlink="http://www.w3.org/1999/xlink" width="234.447" height="38.717" viewBox="0 0 234.447 38.717">
  <defs>
    <clipPath id="clip-path">
      <rect id="Rectangle_22283" data-name="Rectangle 22283" width="234.447" height="38.717" fill="#06b6b3"/>
    </clipPath>
  </defs>
  <g id="Group_5287" data-name="Group 5287" clip-path="url(#clip-path)">
    <path id="Path_47816" data-name="Path 47816" d="M722.534,35.374c-.481.4-.808.7-1.16.961a11.176,11.176,0,0,1-15.7-2.42,13.494,13.494,0,0,1,1.279-17.187,10.753,10.753,0,0,1,7.078-3.1,10.925,10.925,0,0,1,8.169,2.585.274.274,0,0,0,.113.061,1.121,1.121,0,0,0,.222-.015v-.673c0-4.948.01-9.9-.014-14.845,0-.583.171-.729.734-.721q3.441.044,6.882,0c.544-.006.7.164.694.7q-.021,18.184,0,36.368c0,.547-.164.7-.7.691q-3.473-.039-6.947,0c-.5,0-.712-.115-.663-.651s.01-1.058.01-1.759m-5.288-3.84a5.254,5.254,0,0,0,5.459-5.48,5.414,5.414,0,1,0-10.826.009,5.184,5.184,0,0,0,5.367,5.471" transform="translate(-574.481 -0.019)" fill="#06b6b3"/>
    <path id="Path_47817" data-name="Path 47817" d="M36.685,30.38,18.962,15.245,1.178,30.437A18.256,18.256,0,0,1,0,23.88,18.678,18.678,0,0,1,5.025,11.238a18.982,18.982,0,0,1,25-2.577c7.928,5.77,9.243,15.541,6.66,21.719" transform="translate(0 -4.177)" fill="#06b6b3"/>
    <path id="Path_47818" data-name="Path 47818" d="M414.121,97.907c-2.642,0-5.237.008-7.831-.02-.15,0-.408-.281-.424-.45-.053-.568-.02-1.144-.02-1.884-.444.348-.758.591-1.069.837a11.232,11.232,0,0,1-14.293-.7,12.674,12.674,0,0,1-3.873-10.756c.373-4.391,2.3-7.963,6.334-9.959a11.1,11.1,0,0,1,12.212,1.058c.182.134.37.26.689.483,0-.6.02-1.066-.006-1.527-.021-.378.082-.548.5-.546,2.574.013,5.149.007,7.784.007ZM400.6,91.668a5.279,5.279,0,0,0,5.437-5.5,5.417,5.417,0,1,0-10.833-.019,5.2,5.2,0,0,0,5.4,5.519" transform="translate(-315.801 -60.153)" fill="#06b6b3"/>
    <path id="Path_47819" data-name="Path 47819" d="M551.32,74.863a2.969,2.969,0,0,1,.391-.053c2.4,0,4.8.006,7.205-.01.438,0,.565.162.541.576-.03.513-.007,1.029-.007,1.707.406-.311.709-.527.994-.764a9.607,9.607,0,0,1,8.949-1.883,11.229,11.229,0,0,1,3.827,1.674,7.513,7.513,0,0,1,3.329,6.4c.044,5.034.006,10.068.023,15.1,0,.5-.115.675-.646.669q-3.44-.042-6.881,0c-.551.006-.69-.177-.688-.707.02-4.191.015-8.383.01-12.574A4.334,4.334,0,0,0,565,80.526a4.852,4.852,0,0,0-5.544,4.625q-.017,6.157.011,12.315c0,.607-.135.825-.783.814-2.271-.038-4.544-.025-6.816-.006-.449,0-.592-.121-.591-.581q.02-11.213.01-22.426c0-.125.022-.251.036-.4" transform="translate(-450.376 -60.51)" fill="#06b6b3"/>
    <path id="Path_47820" data-name="Path 47820" d="M262.854,30.126h.84c3.831,0,7.663.013,11.494-.014.6,0,.764.169.753.764-.037,2.074-.03,4.15,0,6.224.007.515-.148.665-.66.664q-10.2-.022-20.39,0c-.546,0-.686-.164-.685-.7q.022-18.154,0-36.309c0-.629.212-.759.786-.752,2.381.026,4.762.035,7.143,0,.63-.01.739.2.738.774q-.025,14.264-.012,28.529Z" transform="translate(-207.674 0)" fill="#06b6b3"/>
    <path id="Path_47821" data-name="Path 47821" d="M1000.791,92.506a11.381,11.381,0,0,1-2.815,3.309,13.825,13.825,0,0,1-7.931,2.805,13.192,13.192,0,0,1-9.9-3.028,12.179,12.179,0,0,1,3.131-20.729,13.5,13.5,0,0,1,13.074,1.053,10.181,10.181,0,0,1,4.517,6.984c.235,1.2.226,2.443.347,3.665.058.584-.14.775-.755.772-5.152-.025-10.3-.014-15.456-.014h-.838a4.322,4.322,0,0,0,1.127,3.173,4.664,4.664,0,0,0,2.671,1.489,6.456,6.456,0,0,0,6.162-1.673c.96-.966.6-.835,1.765-.271,1.4.675,2.783,1.381,4.172,2.076.227.113.448.238.729.389m-7.661-9.777c-.072-2.27-2.007-3.727-4.787-3.649a3.887,3.887,0,0,0-3.923,3.649Z" transform="translate(-797.075 -60.174)" fill="#06b6b3"/>
    <path id="Path_47822" data-name="Path 47822" d="M34.505,108.646l6.966,7.428c.9-.808,1.774-1.567,2.611-2.367.335-.32.538-.357.9-.022,2.289,2.1,4.6,4.183,6.962,6.32-.126.174-.238.348-.369.506a18.307,18.307,0,0,1-12.2,6.807A18.462,18.462,0,0,1,24.458,122.8c-.826-.72-1.533-1.577-2.3-2.364a.446.446,0,0,1,.025-.756q6.067-5.465,12.123-10.942a1.174,1.174,0,0,1,.2-.094" transform="translate(-17.94 -88.761)" fill="#06b6b3"/>
    <path id="Path_47823" data-name="Path 47823" d="M1147.282,91.22c.894,1.814,1.735,3.536,2.592,5.249.187.373.039.583-.283.711a25.908,25.908,0,0,1-3.671,1.4,13.7,13.7,0,0,1-8.107-.341c-4.51-1.723-7.575-4.831-8.5-9.629-.864-4.458.723-8.208,4.068-11.193a12.89,12.89,0,0,1,9.077-3.347,14.323,14.323,0,0,1,6.9,1.732c.542.3.718.575.374,1.2-.855,1.566-1.619,3.182-2.432,4.8-3.131-1.475-6.082-1.719-8.406,1.306a5.717,5.717,0,0,0,.046,6.948,5.348,5.348,0,0,0,3.879,2.208,7.535,7.535,0,0,0,4.465-1.056" transform="translate(-922.427 -60.515)" fill="#06b6b3"/>
    <path id="Path_47824" data-name="Path 47824" d="M876.254,74.923v3.059c3.572-4.194,7.65-4.928,12.414-2.424L885.231,82.5a6.89,6.89,0,0,0-3.5-1.231,5.283,5.283,0,0,0-2.793.376,4.725,4.725,0,0,0-2.669,4.407c-.062,3.844-.03,7.689,0,11.534,0,.562-.127.742-.713.733-2.249-.034-4.5-.028-6.749,0-.536.006-.7-.152-.7-.7q.025-11.081.007-22.162c0-.363.011-.621.5-.617,2.445.018,4.889.01,7.334.014a1.812,1.812,0,0,1,.31.067" transform="translate(-709.22 -60.552)" fill="#06b6b3"/>
    <path id="Path_47825" data-name="Path 47825" d="M1256.127,61.976a2.831,2.831,0,0,1-2.793,2.744,2.8,2.8,0,0,1-2.763-2.775,2.778,2.778,0,0,1,5.555.031m-2.827,2.284a2.251,2.251,0,0,0,2.337-2.243,2.295,2.295,0,1,0-4.589-.079,2.243,2.243,0,0,0,2.252,2.322" transform="translate(-1021.684 -48.381)" fill="#06b6b3"/>
    <path id="Path_47826" data-name="Path 47826" d="M1259.178,67.294q0-.065,0-.129c0-1.515.053-1.562,1.552-1.373a.915.915,0,0,1,.817,1.246,7.018,7.018,0,0,0,.034,1.238c0,.151-.133.3-.2.449a4.462,4.462,0,0,1-.439-.357c-.048-.049-.029-.165-.042-.25a.464.464,0,0,0-.651-.422c-.165.055-.253.333-.379.509s-.256.35-.385.525a1.845,1.845,0,0,1-.291-.532,5.45,5.45,0,0,1-.013-.9m1.123-.011.556-.512c-.175-.126-.34-.332-.526-.352-.142-.016-.31.2-.466.319l.437.545" transform="translate(-1028.706 -53.686)" fill="#06b6b3"/>
  </g>
</svg>
