<svg xmlns="http://www.w3.org/2000/svg" width="19.494" height="22.788" viewBox="0 0 19.494 22.788">
  <g id="g10" transform="translate(1 1.06)">
    <path id="path243" d="M11.137-20.573l14.342.016c.512,0,.872.7.923,1.559l.718,12.029c.051.862-.412,1.559-.923,1.559H10.558c-.512,0-.965-.7-.923-1.559l.579-11.957c.042-.863.412-1.648.923-1.647Z" transform="translate(-9.632 26.137)" fill="rgba(0,0,0,0)" stroke="#003053" stroke-linecap="round" stroke-linejoin="round" stroke-width="2"/>
    <path id="path245" d="M21.917-20.185a4.7,4.7,0,0,0-2.264-4.047,4.386,4.386,0,0,0-4.522.013,4.7,4.7,0,0,0-2.243,4.06" transform="translate(-8.656 24.854)" fill="rgba(0,0,0,0)" stroke="#003053" stroke-linecap="round" stroke-linejoin="round" stroke-width="2"/>
  </g>
</svg>
